# xmcd CD database file
#
# Track frame offsets:
#	150
#	17901
#	39234
#	60037
#	82642
#	102996
#	125476
#	149471
#	174268
#	195946
#
# Disc length: 2825 seconds
#
# Revision: 0
# Processed by: cddbd v1.5.1PL0 Copyright (c) Steve Scherf et al.
# Submitted via: CDex 1.60beta1
#
DISCID=6d0b070a
DTITLE=J.P. Torres and his Cuban All Stars - Cuba Swings
DYEAR=0
DGENRE=Jazz
TTITLE0=Satin Doll
TTITLE1=Tenderly
TTITLE2=Autumn Leaves
TTITLE3=In The Mood
TTITLE4=Rhapsody In Blue
TTITLE5=Perfidio
TTITLE6=Summertime
TTITLE7=My Prayer
TTITLE8=Moonlight Seranade
TTITLE9=Take The A Train
EXTD=YEAR: 0
EXTT0=
EXTT1=
EXTT2=
EXTT3=
EXTT4=
EXTT5=
EXTT6=
EXTT7=
EXTT8=
EXTT9=
PLAYORDER=
